<?xml version="1.0" encoding="UTF-8" standalone="no"?>
<!DOCTYPE svg PUBLIC "-//W3C//DTD SVG 1.1//EN" "http://www.w3.org/Graphics/SVG/1.1/DTD/svg11.dtd">
<svg version="1.1" xmlns="http://www.w3.org/2000/svg" xmlns:xlink="http://www.w3.org/1999/xlink" preserveAspectRatio="xMidYMid meet" viewBox="0 0 640 640" width="640" height="640"><defs><path d="M40 320C40 474.54 165.46 600 320 600C474.54 600 600 474.54 600 320C600 165.46 474.54 40 320 40C165.46 40 40 165.46 40 320Z" id="c91Pmu0hE"></path><path d="M544.6 320C544.6 443.96 443.96 544.6 320 544.6C196.04 544.6 95.4 443.96 95.4 320C95.4 196.04 196.04 95.4 320 95.4C443.96 95.4 544.6 196.04 544.6 320Z" id="bCxvUzolC"></path><path d="M543.72 310C547.19 310 550 312.81 550 316.28C550 317.88 550 316.38 550 317.97C550 321.44 547.19 324.26 543.72 324.26C523.59 324.26 469.49 324.26 449.37 324.26C445.9 324.26 443.09 321.44 443.09 317.97C443.09 316.38 443.09 317.88 443.09 316.28C443.09 312.81 445.9 310 449.37 310C469.49 310 523.59 310 543.72 310Z" id="b2GRuVlgjt"></path><path d="M190.63 312.87C194.1 312.87 196.91 315.68 196.91 319.15C196.91 320.75 196.91 319.25 196.91 320.85C196.91 324.32 194.1 327.13 190.63 327.13C170.51 327.13 116.41 327.13 96.28 327.13C92.81 327.13 90 324.32 90 320.85C90 319.25 90 320.75 90 319.15C90 315.68 92.81 312.87 96.28 312.87C116.41 312.87 170.51 312.87 190.63 312.87Z" id="f3S33KKHiG"></path><path d="M516.86 436.81C519.86 438.55 520.89 442.39 519.16 445.39C518.36 446.77 519.11 445.48 518.31 446.86C516.58 449.86 512.73 450.89 509.73 449.16C492.3 439.09 445.45 412.04 428.02 401.98C425.02 400.25 423.99 396.41 425.72 393.4C426.52 392.02 425.77 393.32 426.57 391.93C428.3 388.93 432.14 387.9 435.15 389.64C452.58 399.7 499.43 426.75 516.86 436.81Z" id="aJjaU2Ili"></path><path d="M204.85 389.64C207.86 387.9 211.7 388.93 213.43 391.94C214.23 393.32 213.48 392.02 214.28 393.4C216.01 396.41 214.98 400.25 211.98 401.98C194.55 412.04 147.7 439.09 130.27 449.16C127.26 450.89 123.42 449.86 121.69 446.86C120.89 445.48 121.64 446.77 120.84 445.39C119.11 442.39 120.14 438.55 123.14 436.81C140.57 426.75 187.42 399.7 204.85 389.64Z" id="b4mYepTjN"></path><path d="M439.16 509.73C440.89 512.74 439.86 516.58 436.86 518.31C435.48 519.11 436.77 518.36 435.39 519.16C432.39 520.89 428.55 519.86 426.81 516.86C416.75 499.43 389.7 452.58 379.64 435.15C377.9 432.14 378.93 428.3 381.94 426.57C383.32 425.77 382.02 426.52 383.4 425.72C386.41 423.99 390.25 425.02 391.98 428.02C402.04 445.45 429.09 492.3 439.16 509.73Z" id="c1Oqhky6ga"></path><path d="M213.19 516.86C211.45 519.86 207.61 520.89 204.61 519.16C203.23 518.36 204.52 519.11 203.14 518.31C200.14 516.58 199.11 512.74 200.84 509.73C210.9 492.3 237.95 445.45 248.01 428.02C249.75 425.01 253.59 423.98 256.59 425.72C257.97 426.51 256.68 425.77 258.06 426.56C261.06 428.3 262.09 432.14 260.36 435.14C250.3 452.57 223.25 499.43 213.19 516.86Z" id="b2Vs5m58gP"></path><path d="M327.1 190.64C327.1 194.11 324.28 196.92 320.82 196.92C319.22 196.91 320.72 196.92 319.12 196.91C315.65 196.91 312.84 194.1 312.85 190.63C312.86 170.5 312.89 116.4 312.9 96.28C312.9 92.81 315.72 90 319.18 90C320.78 90 319.28 90 320.88 90C324.35 90 327.16 92.82 327.15 96.29C327.14 116.41 327.11 170.51 327.1 190.64Z" id="g1ceUX9XXk"></path><path d="M458.56 141.36C461.01 138.91 464.99 138.91 467.44 141.36C468.57 142.49 467.51 141.43 468.64 142.56C471.09 145.01 471.09 148.99 468.64 151.44C454.41 165.68 416.15 203.93 401.92 218.16C399.47 220.61 395.49 220.61 393.04 218.16C391.91 217.03 392.97 218.09 391.84 216.96C389.39 214.51 389.39 210.53 391.84 208.08C406.07 193.85 444.33 155.6 458.56 141.36Z" id="coEOuTMXF"></path><path d="M258.16 198.08C260.61 200.53 260.61 204.51 258.16 206.96C257.03 208.09 258.09 207.03 256.96 208.16C254.51 210.61 250.53 210.61 248.08 208.16C233.85 193.93 195.59 155.67 181.36 141.44C178.91 138.99 178.91 135.01 181.36 132.56C182.49 131.43 181.43 132.49 182.56 131.36C185.01 128.91 188.99 128.91 191.44 131.36C205.68 145.59 243.93 183.85 258.16 198.08Z" id="g17F9wPiMl"></path><path d="M522.56 210.39C525.81 209.19 529.43 210.85 530.63 214.1C531.19 215.59 530.67 214.19 531.22 215.69C532.43 218.94 530.77 222.55 527.52 223.76C508.65 230.76 457.93 249.57 439.06 256.57C435.8 257.78 432.19 256.12 430.98 252.87C430.43 251.37 430.95 252.78 430.39 251.28C429.19 248.03 430.85 244.41 434.1 243.21C452.97 236.21 503.69 217.39 522.56 210.39Z" id="cieWY53hF"></path><path d="M207.67 246.22C210.93 247.41 212.61 251.01 211.43 254.27C210.88 255.77 211.39 254.37 210.85 255.87C209.66 259.13 206.06 260.81 202.8 259.62C183.88 252.74 133.05 234.23 114.13 227.35C110.87 226.16 109.19 222.56 110.38 219.3C110.93 217.8 110.41 219.21 110.96 217.71C112.15 214.45 115.75 212.77 119.01 213.96C137.92 220.84 188.76 239.34 207.67 246.22Z" id="hc8joJLEW"></path><path d="M383.45 395.68L313.51 324.38L319.86 318.66L326.22 312.93L389.81 389.95L453.4 466.97L383.45 395.68Z" id="b2eVt0mNeV"></path><path d="M341.38 317.02C341.38 328.82 331.8 338.4 320 338.4C308.2 338.4 298.62 328.82 298.62 317.02C298.62 305.22 308.2 295.63 320 295.63C331.8 295.63 341.38 305.22 341.38 317.02Z" id="c2Fb3nQzGP"></path><path d="M368.05 470C377.03 470 384.31 477.28 384.31 486.26C384.31 490.68 384.31 487.67 384.31 492.08C384.31 501.06 377.03 508.34 368.05 508.34C345.58 508.34 294.42 508.34 271.95 508.34C262.97 508.34 255.69 501.06 255.69 492.08C255.69 487.67 255.69 490.68 255.69 486.26C255.69 477.28 262.97 470 271.95 470C294.42 470 345.58 470 368.05 470Z" id="c2LfzmuFEI"></path><path d="M433.96 320C433.96 325.52 429.47 330 423.96 330C418.44 330 413.96 325.52 413.96 320C413.96 314.48 418.44 310 423.96 310C429.47 310 433.96 314.48 433.96 320Z" id="be3dEVU56"></path><path d="M240 380C240 385.52 235.52 390 230 390C224.48 390 220 385.52 220 380C220 374.48 224.48 370 230 370C235.52 370 240 374.48 240 380Z" id="c2D75FlNDg"></path><path d="M280 410C280 415.52 275.52 420 270 420C264.48 420 260 415.52 260 410C260 404.48 264.48 400 270 400C275.52 400 280 404.48 280 410Z" id="e6HoNLMzAk"></path><path d="M382.25 410.91C382.64 416.44 378.48 421.23 372.97 421.62C367.47 422 362.68 417.83 362.3 412.31C361.92 406.79 366.08 401.99 371.58 401.61C377.09 401.22 381.87 405.39 382.25 410.91Z" id="dnLaFTECx"></path><path d="M229.98 319.51C230.36 325.03 226.2 329.83 220.69 330.22C215.19 330.6 210.41 326.43 210.02 320.91C209.64 315.38 213.8 310.59 219.3 310.2C224.81 309.82 229.59 313.99 229.98 319.51Z" id="e7DzCWoy4"></path><path d="M421.58 261.21C421.96 266.74 417.81 271.53 412.3 271.92C406.79 272.3 402.01 268.13 401.63 262.61C401.24 257.09 405.4 252.29 410.91 251.91C416.41 251.52 421.2 255.69 421.58 261.21Z" id="d15Ldxok5"></path><path d="M220.02 259.33C219.64 264.86 223.8 269.65 229.31 270.04C234.81 270.42 239.59 266.25 239.98 260.73C240.36 255.21 236.2 250.41 230.7 250.02C225.19 249.64 220.41 253.81 220.02 259.33Z" id="bQK6G93F9"></path><path d="M310.02 212.19C309.64 217.71 313.8 222.51 319.31 222.89C324.81 223.28 329.59 219.11 329.98 213.58C330.36 208.06 326.2 203.27 320.7 202.88C315.19 202.5 310.41 206.67 310.02 212.19Z" id="gdMSozT4E"></path><path d="M261.68 223.8C261.3 229.29 265.45 234.06 270.96 234.44C276.47 234.82 281.25 230.68 281.63 225.18C282.01 219.69 277.86 214.92 272.35 214.54C266.84 214.16 262.06 218.3 261.68 223.8Z" id="a1pLfjlmrq"></path><path d="M422.1 379.33C422.49 384.86 418.33 389.65 412.82 390.04C407.32 390.42 402.54 386.25 402.15 380.73C401.77 375.21 405.93 370.41 411.43 370.02C416.94 369.64 421.72 373.81 422.1 379.33Z" id="aDrQKgBhE"></path><path d="M364.8 226.67C364.42 232.19 368.58 236.99 374.08 237.37C379.59 237.76 384.37 233.58 384.75 228.06C385.14 222.54 380.98 217.74 375.47 217.36C369.97 216.97 365.18 221.14 364.8 226.67Z" id="b3wmcFFyPG"></path></defs><g><g><g><g></g><use xlink:href="#c91Pmu0hE" opacity="1" fill="#c41d3c" fill-opacity="1"></use><g><use xlink:href="#c91Pmu0hE" opacity="1" fill-opacity="0" stroke="#0bf683" stroke-width="0" stroke-opacity="1"></use></g><g></g></g><g><use xlink:href="#bCxvUzolC" opacity="1" fill="#ffffff" fill-opacity="1"></use></g><g><use xlink:href="#b2GRuVlgjt" opacity="1" fill="#c41d3c" fill-opacity="1"></use></g><g><use xlink:href="#f3S33KKHiG" opacity="1" fill="#c41d3c" fill-opacity="1"></use></g><g><use xlink:href="#aJjaU2Ili" opacity="1" fill="#c41d3c" fill-opacity="1"></use></g><g><use xlink:href="#b4mYepTjN" opacity="1" fill="#c41d3c" fill-opacity="1"></use></g><g><use xlink:href="#c1Oqhky6ga" opacity="1" fill="#c41d3c" fill-opacity="1"></use></g><g><use xlink:href="#b2Vs5m58gP" opacity="1" fill="#c41d3c" fill-opacity="1"></use></g><g><use xlink:href="#g1ceUX9XXk" opacity="1" fill="#c41d3c" fill-opacity="1"></use></g><g><use xlink:href="#coEOuTMXF" opacity="1" fill="#c41d3c" fill-opacity="1"></use></g><g><use xlink:href="#g17F9wPiMl" opacity="1" fill="#c41d3c" fill-opacity="1"></use></g><g><use xlink:href="#cieWY53hF" opacity="1" fill="#c41d3c" fill-opacity="1"></use></g><g><use xlink:href="#hc8joJLEW" opacity="1" fill="#c41d3c" fill-opacity="1"></use></g><g><use xlink:href="#b2eVt0mNeV" opacity="1" fill="#000000" fill-opacity="1"></use></g><g><g></g><use xlink:href="#c2Fb3nQzGP" opacity="1" fill="#000000" fill-opacity="0.85"></use><g></g></g><g><use xlink:href="#c2LfzmuFEI" opacity="1" fill="#18080b" fill-opacity="1"></use></g><g><use xlink:href="#be3dEVU56" opacity="1" fill="#18080b" fill-opacity="1"></use></g><g><use xlink:href="#c2D75FlNDg" opacity="1" fill="#18080b" fill-opacity="1"></use></g><g><use xlink:href="#e6HoNLMzAk" opacity="1" fill="#18080b" fill-opacity="1"></use></g><g><use xlink:href="#dnLaFTECx" opacity="1" fill="#18080b" fill-opacity="1"></use></g><g><use xlink:href="#e7DzCWoy4" opacity="1" fill="#18080b" fill-opacity="1"></use></g><g><use xlink:href="#d15Ldxok5" opacity="1" fill="#18080b" fill-opacity="1"></use></g><g><use xlink:href="#bQK6G93F9" opacity="1" fill="#18080b" fill-opacity="1"></use></g><g><use xlink:href="#gdMSozT4E" opacity="1" fill="#18080b" fill-opacity="1"></use></g><g><use xlink:href="#a1pLfjlmrq" opacity="1" fill="#18080b" fill-opacity="1"></use></g><g><use xlink:href="#aDrQKgBhE" opacity="1" fill="#18080b" fill-opacity="1"></use></g><g><use xlink:href="#b3wmcFFyPG" opacity="1" fill="#18080b" fill-opacity="1"></use></g></g></g></svg>