<?xml version="1.0" encoding="UTF-8" standalone="no"?>
<!DOCTYPE svg PUBLIC "-//W3C//DTD SVG 1.1//EN" "http://www.w3.org/Graphics/SVG/1.1/DTD/svg11.dtd">
<svg version="1.1" xmlns="http://www.w3.org/2000/svg" xmlns:xlink="http://www.w3.org/1999/xlink" preserveAspectRatio="xMidYMid meet" viewBox="0 0 640 640" width="640" height="640"><defs><path d="M320 640C496.61 640 640 496.61 640 320C640 143.38 496.61 0 320 0C143.38 0 0 143.38 0 320C0 496.61 143.38 640 320 640Z" id="d1iBGjsIGG"></path><path d="M320 640C496.61 640 640 496.61 640 320C640 143.38 496.61 0 320 0C143.38 0 0 143.38 0 320C0 496.61 143.38 640 320 640Z" id="ewdQu7nXn"></path><path d="M320 576.68C178.33 576.68 63.31 461.67 63.31 320C63.31 178.33 178.33 63.31 320 63.31C461.67 63.31 576.68 178.33 576.68 320C576.68 461.67 461.67 576.68 320 576.68Z" id="a4PTBrFxl5"></path><path d="M175 319.1C175 320.79 175 319.21 175 320.89C175 324.54 171.85 327.5 167.95 327.5C145.37 327.5 84.64 327.5 62.05 327.5C58.15 327.5 55 324.54 55 320.89C55 319.21 55 320.79 55 319.1C55 315.45 58.15 312.5 62.05 312.5C84.64 312.5 145.37 312.5 167.95 312.5C171.85 312.5 175 315.45 175 319.1Z" id="a1PbCXxyDw"></path><path d="M320.19 175C318.51 174.99 320.08 175 318.4 174.99C314.76 174.99 311.82 171.84 311.83 167.94C311.84 145.35 311.87 84.63 311.88 62.05C311.88 58.15 314.84 55 318.47 55C320.14 55 318.57 55 320.25 55C323.89 55 326.84 58.17 326.83 62.06C326.82 84.64 326.78 145.36 326.77 167.95C326.77 171.85 323.82 175 320.19 175Z" id="cnEZ43BCb"></path><path d="M315 328.08L322.26 321.55L329.53 315L402.2 403.02L474.87 491.04L394.93 409.57L315 328.08Z" id="a7ENKyemK"></path><path d="M320 345C306.21 345 295 333.8 295 320C295 306.21 306.21 295 320 295C333.8 295 345 306.21 345 320C345 333.8 333.8 345 320 345Z" id="bEK9ZexnA"></path><path d="M420 491.2C420 496.97 420 493.04 420 498.79C420 510.5 408.68 520 394.72 520C359.78 520 280.22 520 245.28 520C231.32 520 220 510.5 220 498.79C220 493.04 220 496.97 220 491.2C220 479.49 231.32 470 245.28 470C280.22 470 359.78 470 394.72 470C408.68 470 420 479.49 420 491.2Z" id="a1cQAlkYgS"></path><path d="M200.69 329.98C195.19 330.35 190.41 326.2 190.02 320.7C189.64 315.19 193.8 310.41 199.3 310.02C204.81 309.65 209.58 313.8 209.97 319.3C210.35 324.8 206.2 329.59 200.69 329.98Z" id="ffvxDHfLB"></path><path d="M319.31 209.97C324.81 210.36 329.59 206.2 329.98 200.69C330.36 195.19 326.2 190.41 320.7 190.02C315.2 189.64 310.42 193.8 310.03 199.3C309.65 204.81 313.81 209.59 319.31 209.97Z" id="bZovElE8n"></path><path d="M243.32 198.28C241.86 199.11 243.23 198.34 241.77 199.16C238.62 200.98 234.49 199.73 232.55 196.35C221.26 176.78 190.93 124.18 179.65 104.62C177.7 101.24 178.69 97.03 181.83 95.22C183.28 94.38 181.92 95.17 183.37 94.33C186.53 92.51 190.66 93.78 192.6 97.15C203.88 116.71 234.21 169.31 245.5 188.89C247.45 192.26 246.46 196.47 243.32 198.28Z" id="n272i1xjL6"></path><path d="M585 319.1C585 320.79 585 319.21 585 320.89C585 324.54 581.84 327.5 577.95 327.5C555.37 327.5 494.64 327.5 472.05 327.5C468.15 327.5 465 324.54 465 320.89C465 319.21 465 320.79 465 319.1C465 315.45 468.15 312.5 472.05 312.5C494.64 312.5 555.37 312.5 577.95 312.5C581.84 312.5 585 315.45 585 319.1Z" id="aRbn4cPt2"></path><path d="M190.61 253.23C189.76 254.68 190.56 253.32 189.71 254.77C187.89 257.92 183.68 258.9 180.32 256.94C160.76 245.63 108.19 215.25 88.64 203.95C85.26 202 84.01 197.86 85.83 194.72C86.67 193.27 85.88 194.63 86.72 193.18C88.54 190.02 92.75 189.05 96.12 191.01C115.67 202.31 168.24 232.7 187.8 244C191.17 245.95 192.43 250.09 190.61 253.23Z" id="a1XwKRmQpc"></path><path d="M394.72 199.11C393.27 198.26 394.63 199.06 393.18 198.21C390.03 196.39 389.05 192.19 391.01 188.82C402.31 169.26 432.7 116.69 444 97.14C445.95 93.77 450.09 92.52 453.23 94.33C454.68 95.17 453.32 94.38 454.77 95.22C457.93 97.04 458.9 101.26 456.94 104.62C445.64 124.17 415.25 176.74 403.95 196.3C402 199.68 397.86 200.93 394.72 199.11Z" id="a2koZJLptE"></path><path d="M446.72 254.67C445.89 253.21 446.67 254.58 445.84 253.12C444.02 249.97 445.27 245.84 448.65 243.9C468.22 232.62 520.82 202.28 540.38 191C543.76 189.06 547.97 190.04 549.78 193.18C550.62 194.64 549.83 193.27 550.67 194.73C552.49 197.88 551.23 202.02 547.85 203.95C528.29 215.24 475.69 245.57 456.12 256.85C452.74 258.8 448.53 257.82 446.72 254.67Z" id="aPH9HIm3P"></path><path d="M440.69 329.98C435.19 330.35 430.41 326.2 430.02 320.7C429.64 315.19 433.8 310.41 439.3 310.02C444.81 309.65 449.58 313.8 449.97 319.3C450.35 324.8 446.2 329.59 440.69 329.98Z" id="aE9XtqxSk"></path><path d="M230.69 249.97C225.19 250.35 220.41 246.2 220.02 240.7C219.64 235.19 223.8 230.41 229.3 230.02C234.81 229.64 239.59 233.8 239.98 239.3C240.36 244.8 236.2 249.59 230.69 249.97Z" id="a4EyEn3IkT"></path><path d="M410.69 249.97C405.19 250.35 400.41 246.2 400.02 240.7C399.64 235.19 403.8 230.41 409.3 230.02C414.81 229.64 419.58 233.8 419.97 239.3C420.35 244.8 416.19 249.59 410.69 249.97Z" id="fHv9VesI"></path><path d="M199.76 393.2C200.6 394.66 199.82 393.29 200.66 394.75C202.48 397.91 201.23 402.05 197.86 403.99C178.3 415.28 125.71 445.65 106.14 456.94C102.77 458.89 98.56 457.91 96.73 454.75C95.89 453.29 96.68 454.66 95.84 453.2C94.01 450.04 95.27 445.9 98.64 443.95C118.21 432.66 170.8 402.29 190.36 391C193.73 389.06 197.94 390.04 199.76 393.2Z" id="bl1ehffMt"></path><path d="M545.66 453.2C544.82 454.66 545.6 453.29 544.76 454.75C542.94 457.91 538.73 458.89 535.36 456.94C515.8 445.65 463.21 415.29 443.64 403.99C440.27 402.05 439.01 397.91 440.84 394.75C441.68 393.29 440.89 394.66 441.73 393.2C443.56 390.04 447.77 389.06 451.14 391C470.71 402.3 523.3 432.66 542.86 443.95C546.23 445.9 547.48 450.04 545.66 453.2Z" id="c5LyCXGX6"></path></defs><g><g><g><use xlink:href="#d1iBGjsIGG" opacity="1" fill="#c41d3c" fill-opacity="1"></use><g><use xlink:href="#d1iBGjsIGG" opacity="1" fill-opacity="0" stroke="#000000" stroke-width="1" stroke-opacity="0"></use></g></g><g><use xlink:href="#ewdQu7nXn" opacity="1" fill="#000000" fill-opacity="0"></use><g><use xlink:href="#ewdQu7nXn" opacity="1" fill-opacity="0" stroke="#0bf683" stroke-width="0" stroke-opacity="1"></use></g></g><g><use xlink:href="#a4PTBrFxl5" opacity="1" fill="#ffffff" fill-opacity="1"></use><g><use xlink:href="#a4PTBrFxl5" opacity="1" fill-opacity="0" stroke="#000000" stroke-width="1" stroke-opacity="0"></use></g></g><g><use xlink:href="#a1PbCXxyDw" opacity="1" fill="#c41d3c" fill-opacity="1"></use><g><use xlink:href="#a1PbCXxyDw" opacity="1" fill-opacity="0" stroke="#000000" stroke-width="1" stroke-opacity="0"></use></g></g><g><use xlink:href="#cnEZ43BCb" opacity="1" fill="#c41d3c" fill-opacity="1"></use><g><use xlink:href="#cnEZ43BCb" opacity="1" fill-opacity="0" stroke="#000000" stroke-width="1" stroke-opacity="0"></use></g></g><g><use xlink:href="#a7ENKyemK" opacity="1" fill="#000000" fill-opacity="1"></use><g><use xlink:href="#a7ENKyemK" opacity="1" fill-opacity="0" stroke="#000000" stroke-width="1" stroke-opacity="0"></use></g></g><g><use xlink:href="#bEK9ZexnA" opacity="1" fill="#000000" fill-opacity="1"></use><g><use xlink:href="#bEK9ZexnA" opacity="1" fill-opacity="0" stroke="#000000" stroke-width="1" stroke-opacity="0"></use></g></g><g><use xlink:href="#a1cQAlkYgS" opacity="1" fill="#18080b" fill-opacity="1"></use><g><use xlink:href="#a1cQAlkYgS" opacity="1" fill-opacity="0" stroke="#000000" stroke-width="1" stroke-opacity="0"></use></g></g><g><use xlink:href="#ffvxDHfLB" opacity="1" fill="#18080b" fill-opacity="1"></use><g><use xlink:href="#ffvxDHfLB" opacity="1" fill-opacity="0" stroke="#000000" stroke-width="1" stroke-opacity="0"></use></g></g><g><use xlink:href="#bZovElE8n" opacity="1" fill="#18080b" fill-opacity="1"></use><g><use xlink:href="#bZovElE8n" opacity="1" fill-opacity="0" stroke="#000000" stroke-width="1" stroke-opacity="0"></use></g></g><g><use xlink:href="#n272i1xjL6" opacity="1" fill="#c41d3c" fill-opacity="1"></use><g><use xlink:href="#n272i1xjL6" opacity="1" fill-opacity="0" stroke="#000000" stroke-width="1" stroke-opacity="0"></use></g></g><g><use xlink:href="#aRbn4cPt2" opacity="1" fill="#c41d3c" fill-opacity="1"></use><g><use xlink:href="#aRbn4cPt2" opacity="1" fill-opacity="0" stroke="#000000" stroke-width="1" stroke-opacity="0"></use></g></g><g><use xlink:href="#a1XwKRmQpc" opacity="1" fill="#c41d3c" fill-opacity="1"></use><g><use xlink:href="#a1XwKRmQpc" opacity="1" fill-opacity="0" stroke="#000000" stroke-width="1" stroke-opacity="0"></use></g></g><g><use xlink:href="#a2koZJLptE" opacity="1" fill="#c41d3c" fill-opacity="1"></use><g><use xlink:href="#a2koZJLptE" opacity="1" fill-opacity="0" stroke="#000000" stroke-width="1" stroke-opacity="0"></use></g></g><g><use xlink:href="#aPH9HIm3P" opacity="1" fill="#c41d3c" fill-opacity="1"></use><g><use xlink:href="#aPH9HIm3P" opacity="1" fill-opacity="0" stroke="#000000" stroke-width="1" stroke-opacity="0"></use></g></g><g><use xlink:href="#aE9XtqxSk" opacity="1" fill="#18080b" fill-opacity="1"></use><g><use xlink:href="#aE9XtqxSk" opacity="1" fill-opacity="0" stroke="#000000" stroke-width="1" stroke-opacity="0"></use></g></g><g><use xlink:href="#a4EyEn3IkT" opacity="1" fill="#18080b" fill-opacity="1"></use><g><use xlink:href="#a4EyEn3IkT" opacity="1" fill-opacity="0" stroke="#000000" stroke-width="1" stroke-opacity="0"></use></g></g><g><use xlink:href="#fHv9VesI" opacity="1" fill="#18080b" fill-opacity="1"></use><g><use xlink:href="#fHv9VesI" opacity="1" fill-opacity="0" stroke="#000000" stroke-width="1" stroke-opacity="0"></use></g></g><g><use xlink:href="#bl1ehffMt" opacity="1" fill="#c41d3c" fill-opacity="1"></use><g><use xlink:href="#bl1ehffMt" opacity="1" fill-opacity="0" stroke="#000000" stroke-width="1" stroke-opacity="0"></use></g></g><g><use xlink:href="#c5LyCXGX6" opacity="1" fill="#c41d3c" fill-opacity="1"></use><g><use xlink:href="#c5LyCXGX6" opacity="1" fill-opacity="0" stroke="#000000" stroke-width="1" stroke-opacity="0"></use></g></g></g></g></svg>